<svg xmlns="http://www.w3.org/2000/svg" viewBox="0 0 512 512">
  <defs>
    <linearGradient id="tile" x1="96" y1="48" x2="416" y2="464" gradientUnits="userSpaceOnUse">
      <stop offset="0" stop-color="#49c2d4" />
      <stop offset="0.58" stop-color="#2da6bd" />
      <stop offset="1" stop-color="#1c6f8f" />
    </linearGradient>
    <linearGradient id="accent" x1="156" y1="150" x2="356" y2="372" gradientUnits="userSpaceOnUse">
      <stop offset="0" stop-color="#fff1a5" />
      <stop offset="1" stop-color="#f3cf69" />
    </linearGradient>
    <filter id="shadow" x="72" y="70" width="368" height="380" color-interpolation-filters="sRGB" filterUnits="userSpaceOnUse">
      <feDropShadow dx="0" dy="18" flood-color="#132033" flood-opacity="0.22" stdDeviation="22" />
    </filter>
  </defs>

  <rect width="512" height="512" rx="112" fill="#f8f4ec" />
  <rect x="58" y="58" width="396" height="396" rx="92" fill="url(#tile)" />
  <path
    d="M110 166c38-39 90-61 146-61 94 0 173 63 197 149"
    fill="none"
    stroke="#f8f4ec"
    stroke-linecap="round"
    stroke-width="24"
    opacity="0.95"
  />
  <path
    d="M402 346c-38 39-90 61-146 61-94 0-173-63-197-149"
    fill="none"
    stroke="#f8f4ec"
    stroke-linecap="round"
    stroke-width="24"
    opacity="0.95"
  />
  <path d="M440 256l-8-70-55 45z" fill="#f8f4ec" />
  <path d="M72 256l8 70 55-45z" fill="#f8f4ec" />

  <g filter="url(#shadow)">
    <rect x="154" y="150" width="204" height="204" rx="48" fill="#223049" />
    <path
      d="M188 260h28l15-60 29 112 24-88 17 36h25"
      fill="none"
      stroke="url(#accent)"
      stroke-linecap="round"
      stroke-linejoin="round"
      stroke-width="24"
    />
    <circle cx="257" cy="253" r="118" fill="none" stroke="#ffffff" stroke-opacity="0.12" stroke-width="18" />
  </g>
</svg>
